<svg xmlns="http://www.w3.org/2000/svg" xmlns:xlink="http://www.w3.org/1999/xlink" width="642" zoomAndPan="magnify" viewBox="0 0 481.5 100.499997" height="134" preserveAspectRatio="xMidYMid meet" version="1.0"><defs><g/></defs><path fill="#6a38ef" d="M 61.296875 3.695312 L 61.273438 3.691406 C 35.644531 0 11.8125 17.792969 8.136719 43.308594 C 6.785156 52.691406 8.34375 61.863281 12.140625 69.859375 L 16.035156 62.160156 C 16.492188 61.253906 17.59375 60.894531 18.5 61.351562 C 19.402344 61.808594 19.765625 62.914062 19.308594 63.816406 L 8.246094 85.710938 L 33.324219 81.539062 C 34.324219 81.371094 35.269531 82.046875 35.4375 83.046875 C 35.601562 84.046875 34.925781 84.992188 33.929688 85.15625 L 25.386719 86.578125 C 31.703125 91.617188 39.382812 95.074219 47.957031 96.3125 C 73.582031 100 97.417969 82.203125 101.089844 56.695312 C 104.765625 31.1875 86.921875 7.386719 61.296875 3.695312 Z M 72.734375 75.90625 C 70.277344 76.425781 67.074219 76.84375 56.285156 72.390625 C 42.484375 66.699219 33.597656 52.742188 32.90625 51.835938 C 32.242188 50.929688 27.332031 44.445312 27.332031 37.738281 C 27.332031 31.03125 30.753906 27.761719 32.132812 26.363281 C 39.761719 18.597656 48.785156 36.792969 44.386719 41.832031 C 43.695312 42.628906 43.039062 43.234375 42.347656 44.085938 C 41.710938 44.828125 40.996094 45.625 41.792969 46.996094 C 42.59375 48.339844 45.351562 52.820312 49.410156 56.421875 C 54.65625 61.066406 58.902344 62.550781 60.421875 63.179688 C 61.554688 63.648438 62.90625 63.539062 63.734375 62.660156 C 64.785156 61.53125 66.082031 59.664062 67.402344 57.824219 C 68.339844 56.503906 69.527344 56.339844 70.773438 56.804688 C 90.707031 63.707031 81.230469 74.078125 72.734375 75.90625 Z M 72.734375 75.90625 " fill-opacity="1" fill-rule="nonzero"/><g fill="#171672" fill-opacity="1"><g transform="translate(104.786236, 82.859677)"><g><path d="M 49.015625 0 C 48.441406 0 48.066406 -0.289062 47.890625 -0.875 L 37.65625 -37.5625 L 37.484375 -37.5625 L 27.15625 -0.875 C 26.976562 -0.289062 26.601562 0 26.03125 0 L 17.359375 0 C 16.835938 0 16.488281 -0.289062 16.3125 -0.875 L 1.046875 -58.140625 C 0.929688 -58.710938 1.160156 -59 1.734375 -59 L 12.921875 -59 C 13.503906 -59 13.851562 -58.710938 13.96875 -58.140625 L 22.46875 -21.078125 L 22.640625 -21.078125 L 32.703125 -58.140625 C 32.878906 -58.710938 33.257812 -59 33.84375 -59 L 41.390625 -59 C 41.910156 -59 42.253906 -58.710938 42.421875 -58.140625 L 52.84375 -21.078125 L 53.015625 -21.078125 L 61.171875 -58.140625 C 61.222656 -58.710938 61.566406 -59 62.203125 -59 L 73.3125 -59 C 73.894531 -59 74.128906 -58.710938 74.015625 -58.140625 L 58.828125 -0.875 C 58.710938 -0.289062 58.335938 0 57.703125 0 Z M 49.015625 0 "/></g></g></g><g fill="#171672" fill-opacity="1"><g transform="translate(179.829561, 82.859677)"><g><path d="M 34.796875 -22.03125 L 28.109375 -42.6875 L 27.859375 -42.6875 L 21.171875 -22.03125 Z M 21.515625 -58.140625 C 21.691406 -58.710938 22.066406 -59 22.640625 -59 L 33.578125 -59 C 34.160156 -59 34.535156 -58.710938 34.703125 -58.140625 L 54.65625 -0.875 C 54.832031 -0.289062 54.632812 0 54.0625 0 L 42.78125 0 C 42.195312 0 41.816406 -0.289062 41.640625 -0.875 L 38.265625 -11.1875 L 17.609375 -11.1875 L 14.3125 -0.875 C 14.144531 -0.289062 13.769531 0 13.1875 0 L 1.828125 0 C 1.242188 0 1.039062 -0.289062 1.21875 -0.875 Z M 21.515625 -58.140625 "/></g></g></g><g fill="#171672" fill-opacity="1"><g transform="translate(235.699968, 82.859677)"><g><path d="M 25.515625 0.953125 C 23.191406 0.953125 20.914062 0.734375 18.6875 0.296875 C 16.46875 -0.128906 14.375 -0.703125 12.40625 -1.421875 C 10.4375 -2.148438 8.628906 -3.003906 6.984375 -3.984375 C 5.335938 -4.972656 3.9375 -6.015625 2.78125 -7.109375 C 2.3125 -7.578125 2.28125 -8.070312 2.6875 -8.59375 L 9.28125 -16.140625 C 9.625 -16.597656 10.054688 -16.625 10.578125 -16.21875 C 12.546875 -14.65625 14.832031 -13.253906 17.4375 -12.015625 C 20.039062 -10.773438 22.90625 -10.15625 26.03125 -10.15625 C 29.15625 -10.15625 31.539062 -10.804688 33.1875 -12.109375 C 34.832031 -13.410156 35.65625 -15.097656 35.65625 -17.171875 C 35.65625 -18.910156 35.019531 -20.328125 33.75 -21.421875 C 32.476562 -22.523438 30.078125 -23.3125 26.546875 -23.78125 L 23.421875 -24.203125 C 17.410156 -25.015625 12.796875 -26.851562 9.578125 -29.71875 C 6.367188 -32.582031 4.765625 -36.644531 4.765625 -41.90625 C 4.765625 -44.625 5.253906 -47.097656 6.234375 -49.328125 C 7.222656 -51.554688 8.628906 -53.453125 10.453125 -55.015625 C 12.273438 -56.578125 14.472656 -57.789062 17.046875 -58.65625 C 19.617188 -59.519531 22.5 -59.953125 25.6875 -59.953125 C 29.613281 -59.953125 33.3125 -59.398438 36.78125 -58.296875 C 40.257812 -57.203125 43.238281 -55.703125 45.71875 -53.796875 C 46.238281 -53.453125 46.300781 -53.019531 45.90625 -52.5 L 40.609375 -44.59375 C 40.253906 -44.132812 39.847656 -44.050781 39.390625 -44.34375 C 37.128906 -45.84375 34.882812 -46.96875 32.65625 -47.71875 C 30.4375 -48.46875 28.113281 -48.84375 25.6875 -48.84375 C 23.082031 -48.84375 21.113281 -48.234375 19.78125 -47.015625 C 18.445312 -45.804688 17.78125 -44.273438 17.78125 -42.421875 C 17.78125 -40.742188 18.457031 -39.351562 19.8125 -38.25 C 21.175781 -37.15625 23.566406 -36.378906 26.984375 -35.921875 L 30.109375 -35.484375 C 36.242188 -34.671875 40.867188 -32.832031 43.984375 -29.96875 C 47.109375 -27.113281 48.671875 -22.992188 48.671875 -17.609375 C 48.671875 -14.953125 48.175781 -12.476562 47.1875 -10.1875 C 46.207031 -7.90625 44.75 -5.941406 42.8125 -4.296875 C 40.875 -2.648438 38.457031 -1.363281 35.5625 -0.4375 C 32.675781 0.488281 29.328125 0.953125 25.515625 0.953125 Z M 25.515625 0.953125 "/></g></g></g><g fill="#171672" fill-opacity="1"><g transform="translate(287.319363, 82.859677)"><g><path d="M 31.578125 0 C 31.003906 0 30.71875 -0.289062 30.71875 -0.875 L 30.71875 -24.984375 C 30.71875 -27.296875 30.179688 -29.144531 29.109375 -30.53125 C 28.035156 -31.925781 26.398438 -32.625 24.203125 -32.625 C 22.117188 -32.625 20.5 -31.925781 19.34375 -30.53125 C 18.1875 -29.144531 17.609375 -27.296875 17.609375 -24.984375 L 17.609375 -0.875 C 17.609375 -0.289062 17.320312 0 16.75 0 L 6.328125 0 C 5.753906 0 5.46875 -0.289062 5.46875 -0.875 L 5.46875 -58.140625 C 5.46875 -58.710938 5.753906 -59 6.328125 -59 L 16.75 -59 C 17.320312 -59 17.609375 -58.710938 17.609375 -58.140625 L 17.609375 -38.171875 L 17.703125 -38.171875 C 18.679688 -39.503906 20.050781 -40.632812 21.8125 -41.5625 C 23.582031 -42.488281 25.828125 -42.953125 28.546875 -42.953125 C 30.859375 -42.953125 32.910156 -42.570312 34.703125 -41.8125 C 36.492188 -41.0625 38 -39.992188 39.21875 -38.609375 C 40.4375 -37.222656 41.347656 -35.570312 41.953125 -33.65625 C 42.554688 -31.75 42.859375 -29.640625 42.859375 -27.328125 L 42.859375 -0.875 C 42.859375 -0.289062 42.570312 0 42 0 Z M 31.578125 0 "/></g></g></g><g fill="#171672" fill-opacity="1"><g transform="translate(335.295039, 82.859677)"><g><path d="M 6.328125 0 C 5.753906 0 5.46875 -0.289062 5.46875 -0.875 L 5.46875 -41.125 C 5.46875 -41.707031 5.753906 -42 6.328125 -42 L 16.75 -42 C 17.320312 -42 17.609375 -41.707031 17.609375 -41.125 L 17.609375 -37.5625 L 17.703125 -37.5625 C 18.679688 -39.238281 20.097656 -40.554688 21.953125 -41.515625 C 23.804688 -42.472656 26.03125 -42.953125 28.625 -42.953125 C 30.019531 -42.953125 31.367188 -42.734375 32.671875 -42.296875 C 33.972656 -41.859375 35.082031 -41.238281 36 -40.4375 C 36.40625 -40.082031 36.492188 -39.675781 36.265625 -39.21875 L 31.40625 -30.375 C 31.113281 -30.019531 30.707031 -29.957031 30.1875 -30.1875 C 28.113281 -31.519531 26.09375 -32.160156 24.125 -32.109375 C 21.863281 -31.992188 20.210938 -31.15625 19.171875 -29.59375 C 18.128906 -28.03125 17.609375 -25.832031 17.609375 -23 L 17.609375 -0.875 C 17.609375 -0.289062 17.320312 0 16.75 0 Z M 6.328125 0 "/></g></g></g><g fill="#171672" fill-opacity="1"><g transform="translate(372.252789, 82.859677)"><g><path d="M 23 -9.28125 C 26.351562 -9.28125 28.519531 -10.785156 29.5 -13.796875 C 29.789062 -14.773438 29.992188 -15.769531 30.109375 -16.78125 C 30.222656 -17.800781 30.28125 -19.207031 30.28125 -21 C 30.28125 -22.789062 30.222656 -24.191406 30.109375 -25.203125 C 29.992188 -26.210938 29.789062 -27.210938 29.5 -28.203125 C 28.519531 -31.203125 26.351562 -32.703125 23 -32.703125 C 19.632812 -32.703125 17.460938 -31.203125 16.484375 -28.203125 C 16.191406 -27.210938 15.988281 -26.210938 15.875 -25.203125 C 15.757812 -24.191406 15.703125 -22.789062 15.703125 -21 C 15.703125 -19.207031 15.757812 -17.800781 15.875 -16.78125 C 15.988281 -15.769531 16.191406 -14.773438 16.484375 -13.796875 C 17.460938 -10.785156 19.632812 -9.28125 23 -9.28125 Z M 23 0.953125 C 18.539062 0.953125 14.691406 -0.0546875 11.453125 -2.078125 C 8.210938 -4.109375 5.984375 -7.03125 4.765625 -10.84375 C 4.304688 -12.351562 3.960938 -13.898438 3.734375 -15.484375 C 3.503906 -17.078125 3.390625 -18.914062 3.390625 -21 C 3.390625 -23.082031 3.503906 -24.914062 3.734375 -26.5 C 3.960938 -28.09375 4.304688 -29.644531 4.765625 -31.15625 C 5.984375 -34.96875 8.210938 -37.882812 11.453125 -39.90625 C 14.691406 -41.9375 18.539062 -42.953125 23 -42.953125 C 27.445312 -42.953125 31.289062 -41.9375 34.53125 -39.90625 C 37.769531 -37.882812 40 -34.96875 41.21875 -31.15625 C 41.675781 -29.644531 42.019531 -28.09375 42.25 -26.5 C 42.488281 -24.914062 42.609375 -23.082031 42.609375 -21 C 42.609375 -18.914062 42.488281 -17.078125 42.25 -15.484375 C 42.019531 -13.898438 41.675781 -12.351562 41.21875 -10.84375 C 40 -7.03125 37.769531 -4.109375 34.53125 -2.078125 C 31.289062 -0.0546875 27.445312 0.953125 23 0.953125 Z M 23 0.953125 "/></g></g></g><g fill="#171672" fill-opacity="1"><g transform="translate(418.233083, 82.859677)"><g><path d="M 19.703125 0.515625 C 14.835938 0.515625 11.390625 -0.609375 9.359375 -2.859375 C 7.335938 -5.117188 6.328125 -8.648438 6.328125 -13.453125 L 6.328125 -32.53125 C 6.328125 -32.882812 6.15625 -33.0625 5.8125 -33.0625 L 3.203125 -33.0625 C 2.628906 -33.0625 2.34375 -33.347656 2.34375 -33.921875 L 2.34375 -41.125 C 2.34375 -41.707031 2.628906 -42 3.203125 -42 L 5.8125 -42 C 6.15625 -42 6.328125 -42.171875 6.328125 -42.515625 L 6.328125 -53.796875 C 6.328125 -54.367188 6.617188 -54.65625 7.203125 -54.65625 L 17.53125 -54.65625 C 18.101562 -54.65625 18.390625 -54.367188 18.390625 -53.796875 L 18.390625 -42.515625 C 18.390625 -42.171875 18.566406 -42 18.921875 -42 L 24.296875 -42 C 24.867188 -42 25.15625 -41.707031 25.15625 -41.125 L 25.15625 -33.921875 C 25.15625 -33.347656 24.867188 -33.0625 24.296875 -33.0625 L 18.921875 -33.0625 C 18.566406 -33.0625 18.390625 -32.882812 18.390625 -32.53125 L 18.390625 -13.96875 C 18.390625 -12.40625 18.675781 -11.316406 19.25 -10.703125 C 19.832031 -10.097656 20.820312 -9.796875 22.21875 -9.796875 L 24.296875 -9.796875 C 24.867188 -9.796875 25.15625 -9.507812 25.15625 -8.9375 L 25.15625 -0.34375 C 25.15625 0.226562 24.867188 0.515625 24.296875 0.515625 Z M 19.703125 0.515625 "/></g></g></g><g fill="#171672" fill-opacity="1"><g transform="translate(446.949068, 82.859677)"><g><path d="M 6.328125 0 C 5.753906 0 5.46875 -0.289062 5.46875 -0.875 L 5.46875 -41.125 C 5.46875 -41.707031 5.753906 -42 6.328125 -42 L 16.75 -42 C 17.320312 -42 17.609375 -41.707031 17.609375 -41.125 L 17.609375 -0.875 C 17.609375 -0.289062 17.320312 0 16.75 0 Z M 6.328125 -48.671875 C 5.753906 -48.671875 5.46875 -48.960938 5.46875 -49.546875 L 5.46875 -58.140625 C 5.46875 -58.710938 5.753906 -59 6.328125 -59 L 16.75 -59 C 17.320312 -59 17.609375 -58.710938 17.609375 -58.140625 L 17.609375 -49.546875 C 17.609375 -48.960938 17.320312 -48.671875 16.75 -48.671875 Z M 6.328125 -48.671875 "/></g></g></g></svg>